<svg xmlns="http://www.w3.org/2000/svg" viewBox="0 0 129.65 149.7"><g id="Layer_2" data-name="Layer 2"><g id="Layer_2-2" data-name="Layer 2"><path d="M129.65,37.43h0L64.82,0,0,37.43v74.85L60.19,147h0l4.63,2.67L69.45,147h0l60.19-34.75h0ZM64.82,10.7l46.3,26.73L64.82,64.16,18.52,37.43ZM9.26,107V42.78L60.19,72.19v64.15Zm111.12,0L69.45,136.34V72.18l50.93-29.41v64.16Z"/><polygon points="53.83 79.21 39.54 89.42 52.85 121.38 40.88 114.46 32.7 94.42 28.76 97.14 28.72 107.44 18.52 101.58 18.53 58.81 28.71 64.66 28.81 83.67 43.65 73.3 53.83 79.21"/></g></g></svg>